<svg width="46" height="77" viewBox="0 0 46 77" fill="none" xmlns="http://www.w3.org/2000/svg">
<g clip-path="url(#clip0_1533_6470)">
<path d="M21.373 16.7C28.2273 16.7 33.5336 18.1588 37.2314 21.0427L30.5312 35.1677C31.0651 31.9627 26.6387 29.2155 21.2969 29.2155C16.5655 29.2155 13.0549 30.2836 13.0547 33.6413C13.0547 34.8615 13.7298 35.6768 15 36.3102C10.957 36.5306 3.56145 35.2486 1.15039 28.3875C3.81845 20.9697 11.0176 16.7 21.373 16.7Z" fill="url(#paint0_linear_1533_6470)"/>
<path d="M1.14551 28.3711C3.55697 35.2311 10.9523 36.5123 14.9951 36.292C17.7763 37.6793 23.4113 38.1956 31.0605 40.1865C35.5065 41.3541 39.8718 43.0253 42.7129 46.4258C42.9341 53.9432 36.2242 61.3603 32.126 61.3603L31.1006 61.2929C32.1849 60.4691 32.8154 59.4629 32.8154 58.3496C32.8152 54.3816 28.0075 53.771 18.0107 51.8633C9.46346 50.2606 0 47.2077 0 35.3789C2.33637e-05 32.8089 0.392631 30.4647 1.14551 28.3711Z" fill="url(#paint1_linear_1533_6470)"/>
<path d="M42.7148 46.4265C44.7014 48.8044 45.9433 52.0278 45.9434 56.5183C45.9434 71.705 33.4272 76.1316 21.2168 76.1316C16.7965 76.1315 8.28797 75.128 3.49805 68.2712L11.7539 55.6794C11.754 60.8687 15.3409 63.5398 22.667 63.5398C26.2019 63.5398 29.2882 62.6723 31.1025 61.2937L32.127 61.3611C36.2251 61.3611 42.9357 53.9437 42.7148 46.4265Z" fill="url(#paint2_linear_1533_6470)"/>
<path d="M21.4455 12.8841C17.7274 12.8841 14.7132 9.99991 14.7132 6.44206C14.7132 2.88421 17.7274 0 21.4455 0C25.1636 0 28.1777 2.88421 28.1777 6.44206C28.1777 9.99991 25.1636 12.8841 21.4455 12.8841Z" fill="black"/>
</g>
<defs>
<linearGradient id="paint0_linear_1533_6470" x1="40.6408" y1="21.9998" x2="7.13864" y2="28.8165" gradientUnits="userSpaceOnUse">
<stop stop-opacity="0.1"/>
<stop offset="1"/>
</linearGradient>
<linearGradient id="paint1_linear_1533_6470" x1="-3.7689" y1="31.9337" x2="39.2771" y2="53.5548" gradientUnits="userSpaceOnUse">
<stop stop-opacity="0.1"/>
<stop offset="1"/>
</linearGradient>
<linearGradient id="paint2_linear_1533_6470" x1="48.2372" y1="46.4265" x2="11.0343" y2="62.3192" gradientUnits="userSpaceOnUse">
<stop stop-opacity="0.1"/>
<stop offset="1"/>
</linearGradient>
<clipPath id="clip0_1533_6470">
<rect width="46" height="77" fill="white"/>
</clipPath>
</defs>
</svg>
